<svg xmlns="http://www.w3.org/2000/svg" xmlns:xlink="http://www.w3.org/1999/xlink" viewBox="0 0 360 360" xmlns:v="https://vecta.io/nano"><g fill="#ec1c24"><path d="M17.88 315.39h4.26l-4.29 20.65h12.27l-.75 3.68H12.83l5.05-24.33zm29.34 24.34h-3.65l.54-2.56-.07-.07c-.7.98-1.59 1.74-2.64 2.28-1.06.55-2.2.82-3.42.82-1.77 0-3.07-.42-3.9-1.26s-1.24-1.98-1.24-3.41l.03-1.09c.02-.41.07-.77.14-1.09l2.35-11.25h3.89L37 332.98l-.19.85c-.06.27-.08.53-.08.78l.02.63a1.86 1.86 0 0 0 .26.85c.16.29.42.53.78.73s.91.31 1.64.31c.75 0 1.44-.16 2.06-.49a6.05 6.05 0 0 0 1.65-1.28c.48-.52.87-1.11 1.19-1.76a7.88 7.88 0 0 0 .68-1.96l1.98-9.54h3.89l-3.66 17.63zm6.51-17.62h4.16l2.42 5.62 4.57-5.62h4.5l-7.5 8.52 4.5 9.1h-4.23l-2.86-6.48-5.39 6.48h-4.46l8.18-9.37-3.89-8.25zm30.1 17.62h-3.65l.54-2.56-.07-.07c-.7.98-1.58 1.74-2.64 2.28-1.06.55-2.2.82-3.42.82-1.77 0-3.07-.42-3.9-1.26s-1.24-1.98-1.24-3.41l.03-1.09c.02-.41.07-.77.14-1.09l2.35-11.25h3.89l-2.25 10.87-.19.85c-.06.27-.09.53-.09.78l.02.63a1.86 1.86 0 0 0 .26.85c.16.29.42.53.78.73s.91.31 1.64.31c.75 0 1.44-.16 2.06-.49a6.05 6.05 0 0 0 1.65-1.28c.48-.52.87-1.11 1.19-1.76a7.88 7.88 0 0 0 .68-1.96l1.98-9.54h3.89l-3.65 17.64z"/><use xlink:href="#B"/><use xlink:href="#C"/><path d="M132.71 331.68c-.09 1.89.38 3.22 1.4 3.99s2.42 1.16 4.19 1.16c.57 0 1.18-.07 1.82-.2a5.9 5.9 0 0 0 1.76-.67c.52-.31.96-.71 1.31-1.21s.53-1.1.53-1.81c0-.68-.16-1.25-.5-1.7a4.08 4.08 0 0 0-1.29-1.14c-.53-.31-1.15-.57-1.86-.78l-2.18-.63-1.94-.58c-.75-.25-1.48-.6-2.18-1.06-.7-.45-1.3-1.06-1.79-1.81s-.73-1.71-.73-2.86c0-1.09.2-2.1.61-3.03a6.76 6.76 0 0 1 1.77-2.4c.77-.67 1.72-1.19 2.85-1.57 1.12-.38 2.4-.56 3.83-.56 1.27 0 2.47.14 3.58.41s2.08.72 2.9 1.33 1.45 1.41 1.91 2.4c.45.99.66 2.2.61 3.63h-4.09c-.02-1.52-.44-2.62-1.26-3.29s-2.06-1-3.72-1c-.29 0-.7.03-1.23.1a5.25 5.25 0 0 0-1.57.48c-.52.25-.98.61-1.36 1.07-.39.47-.58 1.11-.58 1.92 0 .59.14 1.09.41 1.48.27.4.64.73 1.11.99.46.26 1.01.48 1.62.66l1.94.51 2.61.73a8.24 8.24 0 0 1 2.39 1.14c.72.5 1.3 1.15 1.74 1.94s.67 1.83.67 3.1c0 .95-.18 1.9-.54 2.83s-.95 1.77-1.76 2.52-1.85 1.36-3.14 1.82c-1.28.46-2.85.7-4.69.7-1.43 0-2.73-.17-3.89-.49-1.16-.33-2.14-.84-2.95-1.53s-1.42-1.59-1.84-2.68-.61-2.4-.56-3.92h4.09z"/><use xlink:href="#D"/><path d="M172.45 322.11h3.65l-.55 2.56.07.07c.7-.98 1.58-1.74 2.64-2.28 1.06-.55 2.2-.82 3.43-.82 1.77 0 3.07.42 3.9 1.26s1.24 1.98 1.24 3.41l-.03 1.09c-.02.41-.07.77-.14 1.09l-2.35 11.25h-3.89l2.25-10.87.19-.85c.06-.27.09-.53.09-.78l-.02-.63a1.86 1.86 0 0 0-.26-.85c-.16-.28-.43-.53-.8-.73s-.92-.31-1.62-.31c-.77 0-1.46.17-2.06.5s-1.14.73-1.62 1.21a6.51 6.51 0 0 0-1.18 1.69c-.33.67-.57 1.37-.73 2.1l-1.98 9.54h-3.89l3.66-17.65zm19.56 0h3.88l-3.65 17.62h-3.89l3.66-17.62zm1.4-6.72h3.85l-.75 3.68h-3.85l.75-3.68zm9 1.43h3.78l-1.09 5.28h3.51L208 325h-3.51l-1.81 8.62-.24 1.09c-.07.34-.1.61-.1.82 0 .39.08.7.26.94.17.24.55.36 1.14.36l.97-.02c.35-.01.72-.06 1.11-.15l-.65 2.86-1.6.27c-.57.07-1.1.1-1.6.1-.7 0-1.29-.09-1.74-.27-.46-.18-.81-.43-1.07-.73-.26-.31-.44-.66-.55-1.06a4.95 4.95 0 0 1-.15-1.21c0-.34.03-.72.09-1.13l.15-.85 2.01-9.65h-3.07l.61-2.9h3.07l1.09-5.27z"/><use xlink:href="#D" x="58.08"/><use xlink:href="#B" x="138.86"/><use xlink:href="#C" x="138.86"/><path d="M269.42 315.39h4.36l.82 18.61h.07l8.42-18.61h4.19l1.26 18.61h.07l7.98-18.61h4.36l-11.32 24.34h-4.33l-1.16-18.61h-.07l-8.52 18.61h-4.33l-1.8-24.34zm43.83 19.22l-.22.92c-.08.3-.12.57-.12.82s.06.44.17.58.33.2.65.2c.23 0 .45-.03.68-.09a4.04 4.04 0 0 1 .68-.12l-.61 2.79-1.5.32c-.5.1-1.01.15-1.53.15-.66 0-1.2-.2-1.64-.61-.43-.41-.67-.96-.71-1.64-.77.77-1.68 1.34-2.73 1.7s-2.11.54-3.2.54a6.8 6.8 0 0 1-2.08-.31c-.66-.2-1.24-.5-1.76-.89a4.04 4.04 0 0 1-1.21-1.47c-.29-.59-.44-1.27-.44-2.04 0-1.09.2-2.01.61-2.74.41-.74.95-1.35 1.64-1.82.68-.48 1.47-.83 2.35-1.06.89-.23 1.82-.37 2.8-.44l1.96-.15 1.93-.15c.7-.04 1.22-.28 1.55-.7s.49-.96.49-1.62c0-.84-.3-1.4-.89-1.69-.59-.28-1.28-.43-2.08-.43-1.07 0-2 .19-2.79.56-.8.37-1.33 1.11-1.6 2.2h-3.68c.2-1.09.56-2.01 1.06-2.74.5-.74 1.11-1.34 1.84-1.81.73-.46 1.55-.8 2.47-.99a14.54 14.54 0 0 1 2.95-.29c1.59 0 2.83.15 3.73.46s1.56.68 1.98 1.11.68.88.77 1.35.14.86.14 1.18c0 .73-.11 1.61-.34 2.66l-1.32 6.26zm-11.69.28c0 .43.1.79.29 1.07a2.26 2.26 0 0 0 .73.68c.29.17.62.29.99.37.36.08.73.12 1.09.12.95 0 1.76-.16 2.4-.48.65-.32 1.18-.75 1.6-1.3s.75-1.19.99-1.93.43-1.53.56-2.37l-.07-.07c-.27.27-.63.47-1.09.58a11.34 11.34 0 0 1-1.33.24l-1.89.14c-.72.05-1.39.17-2.01.36s-1.16.49-1.6.89c-.44.41-.66.97-.66 1.7zm18.61-12.78h3.68l-.71 3.44.07.07c.27-.48.6-.96.99-1.43.39-.48.82-.9 1.31-1.28a7.4 7.4 0 0 1 1.59-.92c.57-.24 1.15-.36 1.74-.36l.94.02c.31.01.62.04.94.09l-.82 3.72c-.23-.05-.46-.08-.68-.1l-.68-.03c-1 0-1.87.18-2.61.53s-1.36.84-1.88 1.45a7.62 7.62 0 0 0-1.24 2.11c-.32.8-.57 1.64-.75 2.52l-1.64 7.81h-3.89l3.64-17.64zm25.91 12.16c-.61 2.07-1.65 3.57-3.12 4.52-1.47.94-3.25 1.41-5.37 1.41-1.11 0-2.14-.18-3.08-.53a6.92 6.92 0 0 1-2.44-1.53c-.68-.67-1.22-1.48-1.6-2.42-.39-.94-.58-2.02-.58-3.22a12.63 12.63 0 0 1 .65-3.99 10.97 10.97 0 0 1 1.89-3.48 9.41 9.41 0 0 1 3.07-2.47c1.22-.62 2.61-.94 4.18-.94s2.84.26 3.82.78 1.74 1.18 2.28 1.98c.55.8.91 1.67 1.11 2.62.19.96.29 1.86.29 2.73 0 .43-.02.83-.07 1.19l-.14.99h-13.12c-.05.21-.07.4-.07.58v.55c0 1.23.33 2.22.99 2.96.66.75 1.73 1.13 3.2 1.13 1.05 0 1.94-.24 2.69-.73s1.26-1.2 1.53-2.13h3.89zm-2.83-4.9l.03-.55v-.54c0-1.05-.33-1.9-.99-2.57s-1.57-1.01-2.73-1.01c-1.45 0-2.61.44-3.48 1.31-.86.87-1.49 1.99-1.87 3.36h9.04zM63.81 163.26c-.06 1.14.69 2.1 1.97 2.85.63.38 1.37.78 2.22 1.17l4.42 1.94 6.13 2.33a30.79 30.79 0 0 1 3.95 1.87c2.45 1.47 3.65 3.63 3.69 6.6-.02 2.19-.83 4.35-2.45 6.41-1.36 1.73-3.11 3.2-5.22 4.39-3.43 1.9-7.82 2.88-13.05 2.92h0c-4.34 0-8.72-.63-13.01-1.9l-.94-.28 1.26-6.01 1.01.32c1.53.45 3.37.84 5.46 1.16 2.92.48 5.64.73 8.09.73a44.38 44.38 0 0 0 5.53-.34l2.09-.3s3.3-.82 3.49-4.6c-.04-.91-.41-2.07-1.96-2.88l-.85-.42-1-.39-5.1-1.84c-2.72-.96-4.92-1.81-6.54-2.56-.68-.29-1.43-.7-2.24-1.23-3.16-1.99-4.69-4.36-4.69-7.3 0-2.16.83-4.26 2.46-6.22 1.34-1.58 3.16-2.95 5.37-4.09 2.06-1.04 4.37-1.81 6.82-2.29 2-.39 4.13-.59 6.31-.59 2.01 0 4.11.17 6.23.5 1.7.28 3.52.67 5.39 1.18l.56.15-1.23 6.08-2.12-.35c-3.8-.58-7.57-1.06-11.79-1.16-8.2-.21-9.37 1.48-9.37 1.48s-.8.85-.89 2.67zm40.76 30.49h-.34c-2.35 0-4.56-.8-6.17-2.77-1.33-1.52-1.79-3.04-1.99-4.22-.11-.43-.14-.75-.13-1.06.02-1.37.28-3.17.75-5.39l1.8-8.7.21-.95h-5.13l1.13-5.4h5.08l.24-.63 1.81-8.61h7.89l-2.04 9.24h10.17l-1.12 5.4H106.4l-.07.62-1.77 8.27-.64 3.01-.38 1.96-.11.83-.11.78c-.02.81.27 1.26.51 1.51.46.46 1.16.69 2.14.69l1.65-.07 1.93-.17a27.29 27.29 0 0 0 2.46-.44l1.46-.36-1.12 5.22-1.36.36c-2.57.59-4.73.88-6.42.88h0zm46.26-23.94l.29.7c.04.2.09.61.1 1.07-.04.99-.16 1.84-.37 2.47-.65 2.07-2.3 3.91-4.92 5.44-1.07.65-2.27 1.23-3.56 1.74-2.9 1.21-6.03 2.06-9.31 2.51-.33.06-1.78.16-2.32.17l.33 1.03.2.45c.55 1.17 1.52 1.93 2.9 2.29a10.3 10.3 0 0 0 2.25.47 16.6 16.6 0 0 0 2.47.18h.37c1.59 0 2.99-.15 4.39-.44 1.06-.17 2.19-.46 3.32-.83.74-.25 1.42-.51 2.03-.81l-1.4 5.68-.81.3c-.76.28-1.59.52-2.51.71-2.39.53-4.61.79-6.6.79h0l-.42-.01h-.37c-1.54 0-3.04-.12-4.47-.37-2.8-.43-5.08-1.63-6.79-3.56-1.8-2.07-2.73-4.65-2.74-7.66-.04-4.57 2.15-8.7 6.5-12.29 4.03-3.3 8.24-5.04 12.51-5.17.27 0 .61.02 1.03.05l.68.09c.02.03 5.59.57 7.22 5zm-8.21-.41c-2.05.05-4 .66-5.8 1.84-1.46.93-2.62 1.92-3.48 2.95-.39.44-.8.99-1.24 1.61-.4.53-.7 1-.88 1.4l-.78 1.94 1.19-.01c.83-.07 1.45-.14 1.88-.22.86-.12 1.88-.32 3.06-.64l2.11-.64c1.41-.47 2.77-1.13 4.06-1.99a9.52 9.52 0 0 0 2.69-2.48l.31-.5.27-.56.14-.59c-.04-1.56-1.8-1.9-2.37-2.01l-1.07-.1h-.09zm19.08 24.34c-3.65-.04-4.11-1.6-4.1-2.95-.02-.73.06-1.47.23-2.23l.8-3.81 5.15-23.92.48-2.41.24-1.89.09-1.8c0-.56-.04-1.03-.1-1.43h7.99l.03.66-.05 1.15c-.16 1.48-.51 3.52-1.02 6.05l-.87 4.22-4.39 21.02-.46 2.31-.06.36c-.08.27-.1.54-.06.76.02 1.1.82 1.53 1.56 1.53.66 0 1.08-.05 1.54-.18l.44-.09-.32 1.43-1 .33a21.27 21.27 0 0 1-6.12.89h0zm19.33 0c-3.64-.03-4.1-1.6-4.1-2.95-.01-.75.07-1.49.23-2.24l.79-3.81 4.61-21.4.55-2.52.48-2.41.23-1.89.09-1.79c0-.56-.03-1.03-.09-1.43h7.99l.04.67-.05 1.14c-.16 1.42-.48 3.4-1.02 6.05l-5.73 27.55-.06.36c-.06.23-.09.49-.06.72.04 1.15.83 1.57 1.55 1.57a5.92 5.92 0 0 0 1.56-.18c.13-.01.28-.05.44-.09l-.33 1.43-1 .34c-1.99.59-4.05.88-6.12.88h0zm15.59-5.61c.01 0-.04-.11-.1-.46l-.13-.92c-.05-.44-.07-.97-.07-1.6a15.11 15.11 0 0 1 .05-1.61c.22-3.37.88-6.28 1.95-8.68.69-1.61 1.47-2.97 2.33-4.06.86-1.11 1.94-2.1 3.2-2.96.89-.63 1.86-1.14 2.9-1.56 1.04-.41 2.27-.74 3.65-.98 1.03-.19 2.15-.33 3.38-.44l3.96-.17 4.81.23 4.11.49 1.93.27-3.84 18.94-.58 3.05-.15.88-.06.6-.03.42.06.51c.2.84.79 1.31 1.55 1.31a5.87 5.87 0 0 0 2.23-.45l-.25 1.31-.43.16-2.04.55c-.95.24-1.81.42-2.62.51-1.01.17-1.94.26-2.79.26h0-.41c-1.18 0-2.04-.26-2.55-.78-.44-.45-.66-1.18-.64-2.14-.02-.53.01-1.02.11-1.48l.33-1.44.39-1.37 1.4-5.4-2.03 2.08c-4.26 5.32-7.49 8.18-8.96 9.28l-1.03.69c-.2.12-.43.24-.68.35-.3.12-.4.14-.42.14-7.63 1.16-8.53-5.53-8.53-5.53zm22.71-18.04l-1.25.02-2.29.13c-2.64.26-4.76.97-6.36 2.13s-2.92 3.05-3.9 5.63c-.47 1.17-.85 2.43-1.16 3.73-.56 2.39-.84 3.91-.84 4.65.05 1.76 1.27 1.94 1.64 1.95l.49-.07c.31-.08.56-.21.83-.41.59-.33 1.19-.71 1.73-1.12 1.01-.68 2.11-1.65 3.36-2.94 1.25-1.3 2.28-2.47 3.16-3.58.59-.72 1.33-1.8 2.3-3.33.87-1.33 1.52-2.42 1.92-3.23.15-.29.41-.86.75-1.65l.77-1.76-1.15-.15zm-167.1-25.21l88.86.89c10.23-.41 13.98-7.09 15.34-10.81l16.05-51.19c.03.09 1.05-3.65 3.16-3.83 1.79-.15 3.53 4.55 3.53 4.55 8.93 19.85 18.01 44.08 18.74 45.83 2.77 6.85 5.49 11.01 8.81 13.05 6.68 4.1 16.55 2.87 18.17 2.87l61.25-1.27c3.21-.08 3.33-.22 3.86 1.27.56 1.59-1.85 3.01-1.85 3.01l-41.59 31.69L306 147.11s4.63-2.98 2.49-7.11c-.84-1.61-2.11-3.35-10.13-2.88-2.07.12-73.39 2.17-73.39 2.17s-7.55.1-12.93-3.21c-2.48-1.52-5.28-3.68-7.27-8.58-.7-1.76-23.3-51.98-23.3-51.98s-2.46-7.36-6.51-7.17c-1.88.09-4.72 0-7.46 6.33-.71 1.64-18.49 56.22-18.49 56.22s-2.17 5.94-9.35 7.08c-1.05.16-87.43 6.9-87.43 6.9zm10.42 55.51h0l41.3 27.37s4.41 3.31 4.79 6.22c.39 2.91-.1 4.75-1.16 7.28-.74 1.76-19.12 41.14-19.12 41.14s-3.39 7.38-.25 10.39c1.13 1.08 4.42 2.23 8.5-.39l82.68-53.28s4.57-2.91 7.57-2.72c.68.05 3.4 0 6.55 2.18.56.38 54.68 35.1 54.68 35.1l-50.36-42.22c-3.02-2.09-5.47-3.74-10.07-3.95l-.77-.02c-4.8 0-10.15 3.54-11.6 4.46l-69.03 45.32s-4.2 2.82-5.12 2.11c-.85-.67-.8-2.11.87-5.7l13.41-29.06c1.45-3.42 3.06-7.97 2.45-12.5-.73-5.43-4.37-7.86-6.45-9.41l-2.81-1.68-46.06-20.64z"/></g><defs ><path id="B" d="M91.67 322.11h3.68l-.72 3.44.07.07c.27-.48.6-.96.99-1.43.39-.48.82-.9 1.31-1.28a7.58 7.58 0 0 1 1.58-.92c.57-.24 1.15-.36 1.74-.36l.94.02c.31.01.62.04.94.09l-.82 3.72a5.31 5.31 0 0 0-.68-.1l-.68-.03c-1 0-1.87.18-2.61.53s-1.36.84-1.87 1.45a7.62 7.62 0 0 0-1.24 2.11c-.32.8-.57 1.64-.75 2.52l-1.64 7.81h-3.89l3.65-17.64z"/><path id="C" d="M102.64 322.11h4.09l1.84 12.89h.07l6.65-12.89h4.16l-10.09 18.17-1.33 2.42a10.94 10.94 0 0 1-1.48 2.06 6.31 6.31 0 0 1-1.96 1.43c-.75.35-1.67.53-2.76.53a11.23 11.23 0 0 1-2.35-.27l.72-3.24.75.19c.25.06.5.09.75.09.59 0 1.1-.11 1.52-.33s.75-.61 1.01-1.17l1.53-2.83-3.12-17.05z"/><path id="D" d="M165.53 334.61l-.22.92c-.08.3-.12.57-.12.82s.06.44.17.58.33.2.65.2c.23 0 .45-.03.68-.09a4.04 4.04 0 0 1 .68-.12l-.61 2.79-1.5.32c-.5.1-1.01.15-1.53.15-.66 0-1.2-.2-1.64-.61-.43-.41-.67-.96-.72-1.64-.77.77-1.68 1.34-2.73 1.7s-2.11.54-3.2.54a6.8 6.8 0 0 1-2.08-.31c-.66-.2-1.24-.5-1.76-.89-.51-.39-.91-.87-1.21-1.47-.29-.59-.44-1.27-.44-2.04 0-1.09.2-2.01.61-2.74.41-.74.95-1.35 1.64-1.82.68-.48 1.47-.83 2.35-1.06.89-.23 1.82-.37 2.79-.44l1.96-.15 1.93-.15c.7-.04 1.22-.28 1.55-.7s.5-.96.5-1.62c0-.84-.3-1.4-.89-1.69-.59-.28-1.28-.43-2.08-.43-1.07 0-2 .19-2.79.56-.8.37-1.33 1.11-1.6 2.2h-3.68c.2-1.09.56-2.01 1.06-2.74.5-.74 1.11-1.34 1.84-1.81.73-.46 1.55-.8 2.47-.99a14.54 14.54 0 0 1 2.95-.29c1.59 0 2.83.15 3.73.46s1.56.68 1.98 1.11.68.88.77 1.35.14.86.14 1.18c0 .73-.11 1.61-.34 2.66l-1.31 6.26zm-11.69.28c0 .43.1.79.29 1.07a2.26 2.26 0 0 0 .73.68c.29.17.62.29.99.37.36.08.73.12 1.09.12.95 0 1.75-.16 2.4-.48s1.18-.75 1.6-1.3.75-1.19.99-1.93.43-1.53.56-2.37l-.07-.07c-.27.27-.64.47-1.09.58a10.98 10.98 0 0 1-1.33.24l-1.89.14c-.72.05-1.39.17-2.01.36s-1.16.49-1.6.89c-.44.41-.66.97-.66 1.7z"/></defs></svg>